<svg version="1.1" id="Layer_1" xmlns="http://www.w3.org/2000/svg" xmlns:xlink="http://www.w3.org/1999/xlink" x="0px" y="0px"
	 width="100%" viewBox="0 0 640 640" enable-background="new 0 0 640 640" xml:space="preserve">
<path fill="#000000" opacity="1.000000" stroke="none" 
	d="
M242.741486,341.742371 
	C222.957535,361.536591 203.437271,381.098083 183.872650,400.615082 
	C172.562683,411.897552 160.182602,411.920654 148.853256,400.613556 
	C123.154099,374.964783 97.495483,349.275330 71.858582,323.564362 
	C60.999245,312.673645 60.781681,300.177155 71.577049,289.295685 
	C97.374008,263.292969 123.266518,237.384155 149.250076,211.567886 
	C160.088959,200.798828 172.797470,201.005585 183.565369,211.768234 
	C209.245270,237.435532 234.908707,263.119293 260.556732,288.818420 
	C271.886230,300.170502 271.852570,312.449310 260.564117,323.760468 
	C254.685318,329.651062 248.844513,335.579590 242.741486,341.742371 
M229.178589,316.319214 
	C222.941071,326.878021 212.359009,330.917908 201.494370,326.888153 
	C191.425949,323.153717 185.890045,312.388214 188.122162,300.792267 
	C188.435349,299.165253 189.301712,297.450623 188.023956,296.017242 
	C184.103058,291.618805 180.049988,287.340607 174.958481,283.326263 
	C174.577728,284.747375 174.276230,285.351379 174.274384,285.956329 
	C174.233932,299.120453 174.282089,312.285187 174.170090,325.448578 
	C174.145584,328.327728 175.926041,329.495117 177.951019,330.768158 
	C184.321335,334.773010 187.802368,340.630676 188.284988,348.079163 
	C188.976364,358.749023 181.884079,368.480896 171.909821,370.932892 
	C160.850113,373.651733 150.101639,368.219086 145.760025,357.715851 
	C141.660172,347.797516 145.229858,336.620239 154.746857,330.817383 
	C157.721756,329.003448 158.774475,326.988892 158.721985,323.595123 
	C158.544189,312.099609 158.573746,300.598572 158.713196,289.101929 
	C158.753159,285.808228 157.877182,283.776123 154.865906,281.841187 
	C147.136230,276.874298 143.198853,269.593109 144.425705,260.195557 
	C145.427170,252.524292 144.510437,250.415283 137.092758,246.003403 
	C135.928665,247.075287 134.675034,248.150970 133.509369,249.314789 
	C117.000603,265.797546 100.497498,282.285980 84.007179,298.787201 
	C77.498528,305.300140 77.492691,307.285126 84.177010,313.967316 
	C109.276657,339.058929 134.401581,364.125244 159.529114,389.188934 
	C165.207733,394.853119 167.513519,394.857666 173.198288,389.182892 
	C198.194519,364.230743 223.182571,339.270416 248.152679,314.292084 
	C255.237488,307.204956 255.191544,305.215576 247.946762,297.970276 
	C225.677719,275.699585 203.400620,253.436966 181.122452,231.175415 
	C177.940079,227.995392 174.792252,224.777359 171.521515,221.690216 
	C168.831192,219.150925 165.515076,218.057098 162.514633,220.649246 
	C157.776108,224.742996 153.448868,229.312790 148.424042,234.189133 
	C153.120392,237.202652 154.008499,243.562515 160.968414,241.749084 
	C175.758377,237.895554 190.126068,249.700027 187.976883,264.830292 
	C186.982803,271.828644 189.025299,275.825592 193.855896,279.655029 
	C195.023834,280.580902 196.100967,281.663300 197.050873,282.813293 
	C198.939880,285.100189 200.894348,285.776794 204.015106,284.898071 
	C212.725967,282.445312 220.360138,285.183441 226.149521,291.760590 
	C232.301147,298.749237 232.992538,307.006409 229.178589,316.319214 
M215.692444,307.967773 
	C215.860275,301.977631 212.170990,298.274719 207.706665,300.020111 
	C204.863876,301.131531 203.108902,303.122955 203.112030,306.364288 
	C203.114929,309.367920 204.540390,311.528687 207.327087,312.369537 
	C210.938797,313.459290 213.799362,312.237579 215.692444,307.967773 
M171.546158,266.967590 
	C173.376114,264.085297 173.113937,261.260010 170.976059,258.740845 
	C169.530975,257.038055 167.566727,256.204132 165.210907,256.683075 
	C162.294571,257.275940 160.580872,259.147552 159.816238,261.879944 
	C159.039276,264.656342 160.545914,266.770447 162.504166,268.322113 
	C165.455902,270.661072 168.377747,269.714386 171.546158,266.967590 
M170.647491,354.237213 
	C174.128113,349.075684 172.585648,343.893005 167.340332,343.182770 
	C164.145935,342.750305 161.913895,344.149170 160.386597,346.903503 
	C158.956314,349.482849 159.634827,351.786774 161.458786,353.741638 
	C163.971481,356.434601 166.932266,356.543335 170.647491,354.237213 
z"/>
<path fill="#000000" opacity="1.000000" stroke="none" 
	d="
M433.127808,243.414398 
	C429.194824,253.401688 425.390991,263.173065 421.583038,272.942841 
	C420.740326,275.104950 420.183777,277.431152 416.998383,277.306183 
	C414.020508,277.189392 413.737854,274.845520 412.981750,272.917175 
	C408.852081,262.384491 404.778778,251.829727 400.132599,239.856216 
	C400.132599,250.432602 400.134338,259.599518 400.130981,268.766449 
	C400.130371,270.432007 400.111176,272.097565 400.096313,273.763092 
	C400.074524,276.204193 398.969025,277.379303 396.401184,277.311340 
	C394.019623,277.248291 393.115387,276.008698 393.111115,273.867249 
	C393.083527,260.041779 393.060364,246.216232 393.088074,232.390808 
	C393.092010,230.438187 393.633057,228.633255 396.141418,228.724274 
	C399.114960,228.832153 402.428070,227.568130 404.016083,231.893600 
	C408.140686,243.128143 412.570374,254.250671 417.277130,266.451569 
	C418.595398,263.217316 419.665161,260.745483 420.617218,258.229095 
	C423.798279,249.821274 427.149841,241.468796 430.006134,232.950928 
	C431.525116,228.421082 434.665375,228.343933 438.286774,228.746231 
	C442.165436,229.177109 441.120178,232.316681 441.135315,234.577774 
	C441.218994,247.070908 441.173248,259.565094 441.128235,272.058746 
	C441.119354,274.516937 441.533661,277.302917 437.619965,277.307495 
	C433.759979,277.312042 434.044708,274.573151 434.024078,272.090302 
	C433.945160,262.596100 433.928406,253.101425 433.880524,243.606964 
	C433.879700,243.449768 433.821381,243.234695 433.711273,243.154160 
	C433.619263,243.086868 433.411835,243.177322 433.127808,243.414398 
z"/>
<path fill="#000000" opacity="1.000000" stroke="none" 
	d="
M283.684326,346.000549 
	C283.694672,340.507446 283.763031,335.513397 283.692993,330.521362 
	C283.654480,327.777344 284.847137,326.626740 287.578552,326.653107 
	C295.067596,326.725342 302.567993,326.446442 310.044464,326.763947 
	C317.348633,327.074127 322.700073,331.449310 324.059784,337.480743 
	C325.711975,344.809753 322.656830,350.114777 313.401123,355.227356 
	C317.513306,361.526520 321.615295,367.810028 325.960602,374.466278 
	C320.867035,376.145020 317.636780,375.567902 315.288940,371.149658 
	C313.030853,366.900177 310.261658,362.915497 307.614014,358.882111 
	C305.585999,355.792725 295.758423,353.892639 292.660919,355.863739 
	C291.104004,356.854523 291.339203,358.431061 291.322449,359.893250 
	C291.278625,363.720947 291.231659,367.550842 291.315216,371.377014 
	C291.372528,374.003174 290.521027,375.385864 287.612946,375.353363 
	C284.849396,375.322510 283.696259,374.173706 283.706299,371.466431 
	C283.737213,363.144562 283.697083,354.822449 283.684326,346.000549 
M307.817474,349.629089 
	C308.470367,349.515808 309.143524,349.469452 309.772858,349.278534 
	C314.210846,347.932159 317.029968,345.328247 316.727478,340.288818 
	C316.426239,335.270355 313.002106,333.660797 308.765106,332.875366 
	C303.972595,331.986877 298.811157,331.432556 294.408478,332.725830 
	C287.783936,334.671783 292.590302,340.966766 291.415192,345.167297 
	C290.727325,347.626038 291.586945,349.879456 294.965027,349.652710 
	C295.792847,349.597137 296.628296,349.660431 297.460236,349.660400 
	C300.621704,349.660309 303.783173,349.656616 307.817474,349.629089 
z"/>
<path fill="#000000" opacity="1.000000" stroke="none" 
	d="
M516.036499,275.025513 
	C509.557159,265.214111 510.299835,255.052551 514.130188,245.181671 
	C516.595154,238.829483 525.210754,236.780212 531.793335,239.967438 
	C533.261780,240.678421 534.589355,241.680313 536.272278,242.729370 
	C537.046143,239.371628 539.591919,239.152328 542.043457,239.946259 
	C544.576111,240.766434 543.583618,243.185165 543.570557,245.104126 
	C543.499329,255.576019 543.401550,266.048553 543.454468,276.520172 
	C543.483948,282.352844 542.303833,287.606018 536.632141,290.415497 
	C530.441040,293.482178 524.103149,293.275574 517.998779,289.960236 
	C516.871399,289.347961 515.828125,288.354828 515.096558,287.295471 
	C514.124756,285.888275 512.447998,284.125153 514.690430,282.604034 
	C516.346802,281.480469 518.662170,280.877472 520.105896,282.840454 
	C523.341858,287.240356 527.685425,287.852020 532.035461,285.804596 
	C536.827759,283.548859 536.795593,278.685669 536.570251,273.575043 
	C530.035645,278.837555 523.389893,280.682556 516.036499,275.025513 
M535.680054,252.018295 
	C533.357544,245.840729 530.531738,243.560654 525.775757,244.384796 
	C520.334961,245.327606 519.405029,249.586395 519.247131,254.094315 
	C519.114197,257.890045 519.076721,261.721680 519.448547,265.492920 
	C519.789856,268.955658 521.317505,271.954071 525.259460,272.588165 
	C529.489624,273.268616 532.767151,271.774689 534.660400,267.804749 
	C536.965210,262.971771 537.326294,257.956482 535.680054,252.018295 
z"/>
<path fill="#000000" opacity="1.000000" stroke="none" 
	d="
M494.574280,365.115021 
	C498.163452,357.962555 499.382965,349.941071 501.430389,342.181335 
	C502.585968,337.801758 504.712952,336.867737 508.984833,338.493469 
	C508.095154,344.961548 505.730194,350.996796 504.104584,357.203369 
	C502.882629,361.868683 501.325745,366.447662 500.152802,371.123962 
	C499.392578,374.154877 497.972534,375.510193 494.632812,375.447601 
	C491.037476,375.380249 490.298157,373.359161 489.646912,370.510590 
	C487.912292,362.923157 485.961151,355.385254 483.245361,347.822815 
	C481.257935,355.461517 479.240845,363.092712 477.299713,370.743164 
	C476.651459,373.298035 475.980927,375.362640 472.579315,375.423645 
	C469.293549,375.482513 467.796356,374.181458 466.975800,371.142700 
	C464.373627,361.506104 461.574890,351.922791 458.909363,342.302979 
	C458.565918,341.063568 458.120056,339.743408 458.843353,338.239990 
	C462.660797,336.770325 464.916382,337.873413 465.889679,342.148529 
	C467.657196,349.912231 469.688080,357.615967 472.469482,365.523163 
	C474.584778,357.673096 476.674347,349.815918 478.832794,341.977753 
	C479.394073,339.939606 479.728058,337.772278 482.742859,337.637512 
	C485.903351,337.496246 487.639496,338.477936 488.414276,341.734955 
	C490.260376,349.495422 492.399170,357.186249 494.574280,365.115021 
z"/>
<path fill="#000000" opacity="1.000000" stroke="none" 
	d="
M283.683472,241.015137 
	C283.681824,228.659012 283.682831,228.569397 295.546570,228.702454 
	C300.679443,228.760025 305.866028,227.966248 310.947144,229.394501 
	C318.420135,231.495102 322.593994,237.153442 322.031891,244.468018 
	C321.444458,252.112030 315.885620,257.759033 308.104462,258.273804 
	C303.791168,258.559174 299.447906,258.463959 295.119385,258.419617 
	C292.390198,258.391632 291.138397,259.504700 291.292114,262.305298 
	C291.419708,264.629700 291.681396,267.040833 291.225586,269.279541 
	C290.643311,272.139587 293.779022,277.097839 287.657013,277.225067 
	C281.560760,277.351746 283.879761,272.401978 283.793091,269.485962 
	C283.516205,260.168396 283.686188,250.837540 283.683472,241.015137 
M308.180176,251.966309 
	C312.937683,250.609192 314.893402,247.154984 314.497681,242.553574 
	C314.104828,237.985535 311.143951,235.714355 306.639465,234.933624 
	C302.660370,234.243927 298.702393,234.509277 294.731903,234.450821 
	C292.536591,234.418472 291.581451,235.485352 291.297394,237.752350 
	C289.536041,251.808762 290.807739,253.247101 304.957245,252.619843 
	C305.777100,252.583496 306.589417,252.376877 308.180176,251.966309 
z"/>
<path fill="#000000" opacity="1.000000" stroke="none" 
	d="
M368.938721,238.655823 
	C379.603729,239.476196 386.115051,247.224045 385.174896,257.212494 
	C384.909302,260.034393 383.213196,260.308014 381.063599,260.310089 
	C375.075348,260.315765 369.085114,260.425995 363.099579,260.303406 
	C359.546753,260.230652 358.761200,261.993835 359.398224,265.018524 
	C360.088776,268.297668 361.647888,271.165222 364.953156,272.141083 
	C368.862732,273.295288 373.041016,273.528046 376.097778,270.138062 
	C378.556244,267.411530 380.793091,267.666382 383.392578,269.535248 
	C381.226868,276.501068 373.636444,279.944000 364.529144,278.110016 
	C359.494720,277.096191 355.575317,274.509430 353.594299,269.616455 
	C350.523071,262.030518 350.452423,254.287033 353.745575,246.848679 
	C356.481232,240.669601 362.020905,238.593231 368.938721,238.655823 
M376.894165,250.550461 
	C375.598236,246.131577 372.668640,244.126419 368.050690,244.235596 
	C363.851593,244.334869 361.227081,246.514206 359.754333,250.169739 
	C358.685822,252.821869 359.215607,254.720581 362.693085,254.651291 
	C366.658569,254.572266 370.627075,254.612686 374.593903,254.643646 
	C377.024200,254.662613 377.984497,253.655014 376.894165,250.550461 
z"/>
<path fill="#000000" opacity="1.000000" stroke="none" 
	d="
M425.512329,342.623474 
	C431.453796,336.512604 438.831299,334.943726 446.248566,337.955719 
	C452.030304,340.303558 455.318176,346.464172 455.442352,354.328125 
	C455.491730,357.456726 454.344971,358.423767 451.403076,358.367615 
	C445.421692,358.253540 439.434601,358.439056 433.453247,358.323883 
	C429.648682,358.250610 428.878662,359.735291 429.978149,363.239227 
	C432.421936,371.027252 440.058594,373.457947 446.516357,368.320160 
	C449.771698,365.730255 449.771698,365.730255 453.789398,367.564087 
	C454.223694,369.666718 452.808868,370.963440 451.553558,372.227753 
	C443.456818,380.382782 427.010437,376.823517 423.368530,365.981720 
	C420.727997,358.120911 420.853882,350.294830 425.512329,342.623474 
M441.729950,342.477325 
	C433.184998,341.907745 429.617004,344.874786 430.233948,352.658997 
	C434.269318,352.658997 438.364594,352.734222 442.454803,352.623077 
	C444.163483,352.576691 446.429230,353.464142 447.379150,351.390900 
	C448.356232,349.258392 447.318573,347.121460 445.924408,345.440033 
	C445.009827,344.337006 443.641907,343.609894 441.729950,342.477325 
z"/>
<path fill="#000000" opacity="1.000000" stroke="none" 
	d="
M480.994415,271.247284 
	C475.350006,278.376587 466.596649,280.490173 458.473846,276.976624 
	C451.949310,274.154388 447.853119,265.220825 448.915710,256.131012 
	C450.595276,241.763901 461.557312,234.662689 473.716797,240.064880 
	C479.518219,242.642319 484.083252,252.021271 482.639893,258.115723 
	C482.098083,260.403473 480.459503,260.302673 478.801605,260.310669 
	C472.651520,260.340363 466.499939,260.414215 460.351685,260.309235 
	C456.873657,260.249847 456.004578,261.533813 456.956573,264.883881 
	C459.310272,273.166779 467.485443,275.673767 474.119690,269.878387 
	C477.033081,267.333435 479.364197,266.690704 480.994415,271.247284 
M473.890472,248.570190 
	C470.613373,244.412476 466.362793,242.959854 462.170929,244.905319 
	C458.300934,246.701401 456.923889,250.015289 457.092865,254.324677 
	C463.153015,254.324677 468.898346,254.324677 474.737061,254.324677 
	C475.239014,252.340393 474.773529,250.773315 473.890472,248.570190 
z"/>
<path fill="#000000" opacity="1.000000" stroke="none" 
	d="
M353.970947,358.338013 
	C349.983643,358.340973 346.486877,358.417145 342.994568,358.324982 
	C339.708038,358.238251 339.017029,359.682526 339.755615,362.698395 
	C341.744690,370.820251 350.047302,373.822876 356.385345,368.233063 
	C359.035950,365.895386 361.046051,365.551727 363.753448,367.556732 
	C364.241577,369.678558 362.803528,370.963165 361.543427,372.221252 
	C353.353790,380.397278 337.135529,376.800262 333.311584,365.939026 
	C331.445923,360.639923 331.185852,355.227478 332.534210,349.727661 
	C334.920074,339.995789 342.353607,335.115906 352.344055,336.816986 
	C360.733673,338.245483 366.238037,346.071503 365.516510,355.306244 
	C365.350830,357.426788 364.475250,358.293121 362.450806,358.287018 
	C359.788422,358.278961 357.125885,358.318542 353.970947,358.338013 
M353.135284,352.660217 
	C357.899780,352.258972 358.863312,350.593048 356.673279,346.537964 
	C354.275238,342.097717 350.208160,341.535614 345.994690,342.586151 
	C341.363678,343.740784 339.827789,347.412170 339.738281,352.076752 
	C344.045990,353.154144 348.163940,352.448242 353.135284,352.660217 
z"/>
<path fill="#000000" opacity="1.000000" stroke="none" 
	d="
M562.898438,271.323975 
	C567.684753,273.488739 571.894226,273.353577 575.752014,270.028687 
	C578.696472,267.490936 578.720947,267.519348 582.948303,269.833893 
	C583.238098,271.759125 581.892029,272.890594 580.749756,274.052338 
	C572.402039,282.542328 555.987122,278.888458 552.199768,267.660370 
	C550.051392,261.291382 550.187866,254.839279 552.414673,248.531494 
	C555.202393,240.634918 564.256348,236.648895 573.072510,239.238174 
	C580.755127,241.494537 585.684875,249.684387 584.328674,257.561890 
	C583.892639,260.094604 582.326965,260.292175 580.401672,260.299927 
	C574.902161,260.322113 569.402588,260.316437 563.903198,260.351868 
	C558.097107,260.389252 557.084900,261.910461 559.588928,267.174835 
	C560.280640,268.629089 561.573486,269.797394 562.898438,271.323975 
M570.729248,244.479584 
	C562.214783,243.906265 558.595886,246.921997 559.255310,254.655212 
	C563.285461,254.655212 567.377319,254.728897 571.464294,254.620056 
	C573.173462,254.574524 575.440125,255.463562 576.388977,253.396729 
	C577.369812,251.260300 576.226624,249.134872 574.917053,247.436096 
	C574.050598,246.312180 572.642944,245.605545 570.729248,244.479584 
z"/>
<path fill="#000000" opacity="1.000000" stroke="none" 
	d="
M376.741455,341.280151 
	C379.656006,349.822845 382.421082,357.993378 385.635956,367.493103 
	C388.882568,358.373932 391.900574,350.466064 394.483734,342.418610 
	C395.934479,337.898987 398.346375,336.603363 402.764984,338.502533 
	C402.713043,342.136444 400.870087,345.188019 399.713745,348.414978 
	C396.912292,356.232971 393.873779,363.966492 391.111633,371.797882 
	C390.095886,374.677795 388.292084,375.437988 385.446136,375.412262 
	C382.687225,375.387329 381.295197,374.355682 380.378418,371.737671 
	C376.810150,361.548309 373.038818,351.429962 369.329407,341.290192 
	C368.985077,340.348907 368.515839,339.446228 369.186462,338.130219 
	C372.118439,337.447784 375.202698,336.590759 376.741455,341.280151 
z"/>
<path fill="#000000" opacity="1.000000" stroke="none" 
	d="
M489.986755,249.060684 
	C489.985657,247.241547 489.898865,245.905640 490.007690,244.585861 
	C490.148651,242.875854 489.350128,240.561188 491.765625,239.944366 
	C494.053833,239.360031 496.574493,239.103210 497.397675,242.726028 
	C499.751434,240.660294 501.631409,238.418564 504.828125,238.677734 
	C506.651550,238.825577 508.143311,239.128754 508.240753,241.368759 
	C508.325378,243.313324 508.200958,244.789673 505.641052,245.293686 
	C499.752167,246.453125 497.620209,249.140884 497.379517,255.638901 
	C497.164429,261.444672 497.279480,267.263611 497.295654,273.076599 
	C497.302185,275.420746 497.136536,277.314758 493.950378,277.357697 
	C490.700653,277.401489 490.001495,275.625519 490.001984,272.969604 
	C490.003418,265.163422 489.993500,257.357269 489.986755,249.060684 
z"/>
<path fill="#000000" opacity="1.000000" stroke="none" 
	d="
M336.464600,242.879883 
	C338.899445,241.167648 340.738342,238.463501 344.366425,238.658203 
	C346.474121,238.771332 347.942657,239.294876 348.003204,241.704987 
	C348.056793,243.837769 347.350586,245.241287 344.920135,245.246552 
	C339.242615,245.258865 337.530792,249.095520 337.278259,253.777374 
	C336.947540,259.908234 337.060913,266.062286 336.937347,272.205444 
	C336.886749,274.720612 337.056396,277.348175 333.231232,277.317352 
	C329.337219,277.285980 329.710236,274.588715 329.703644,272.112366 
	C329.678314,262.643585 329.683411,253.174667 329.709015,243.705887 
	C329.713928,241.886368 329.556274,239.888977 332.265381,239.750015 
	C334.411530,239.639938 336.376099,239.720947 336.464600,242.879883 
z"/>
<path fill="#000000" opacity="1.000000" stroke="none" 
	d="
M407.686859,369.847595 
	C407.685333,360.391663 407.684113,351.419006 407.690735,342.446320 
	C407.692505,340.049255 407.585999,337.752930 411.125580,337.673065 
	C414.886719,337.588196 415.006561,340.003204 415.008514,342.615204 
	C415.015442,351.920105 414.997467,361.225037 414.958740,370.529846 
	C414.948700,372.937531 414.888641,375.250275 411.440033,375.330627 
	C407.659912,375.418671 407.674377,372.940887 407.686859,369.847595 
z"/>
<path fill="#000000" opacity="1.000000" stroke="none" 
	d="
M413.493469,329.919800 
	C411.191010,330.206055 408.974426,331.016632 407.995026,328.470459 
	C407.519562,327.234436 407.451843,325.760223 408.310181,324.657623 
	C409.369110,323.297302 411.113251,323.421539 412.460510,323.834564 
	C416.013275,324.923676 415.071014,327.353577 413.493469,329.919800 
z"/>
</svg>